<mxfile host="app.diagrams.net" agent="Mozilla/5.0 (Windows NT 10.0; Win64; x64) AppleWebKit/537.36 (KHTML, like Gecko) Chrome/135.0.0.0 Safari/537.36" version="26.2.10">
  <diagram id="R2lEEEUBdFMjLlhIrx00" name="Page-1">
    <mxGraphModel dx="1304" dy="704" grid="1" gridSize="10" guides="1" tooltips="1" connect="1" arrows="1" fold="1" page="1" pageScale="1" pageWidth="850" pageHeight="1100" math="0" shadow="0">
      <root>
        <mxCell id="0"/>
        <mxCell id="1" parent="0"/>
        <mxCell id="2" value="country" style="rounded=0;whiteSpace=wrap;html=1;" vertex="1" parent="1">
          <mxGeometry x="100" y="100" width="120" height="60" as="geometry"/>
        </mxCell>
        <mxCell id="3" value="country_id" style="text;html=1;align=left;verticalAlign=top;resizable=0;points=[];autosize=1;" vertex="1" parent="2">
          <mxGeometry x="10" y="10" width="80" height="20" as="geometry"/>
        </mxCell>
        <mxCell id="4" value="PK, AI" style="text;html=1;align=left;verticalAlign=top;resizable=0;points=[];autosize=1;" vertex="1" parent="3">
          <mxGeometry x="85" y="0" width="50" height="20" as="geometry"/>
        </mxCell>
        <mxCell id="5" value="name" style="text;html=1;align=left;verticalAlign=top;resizable=0;points=[];autosize=1;" vertex="1" parent="2">
          <mxGeometry x="10" y="30" width="40" height="20" as="geometry"/>
        </mxCell>
        <mxCell id="6" value="address" style="rounded=0;whiteSpace=wrap;html=1;" vertex="1" parent="1">
          <mxGeometry x="320" y="100" width="120" height="100" as="geometry"/>
        </mxCell>
        <mxCell id="7" value="address_id" style="text;html=1;align=left;verticalAlign=top;resizable=0;points=[];autosize=1;" vertex="1" parent="6">
          <mxGeometry x="10" y="10" width="80" height="20" as="geometry"/>
        </mxCell>
        <mxCell id="8" value="PK, AI" style="text;html=1;align=left;verticalAlign=top;resizable=0;points=[];autosize=1;" vertex="1" parent="7">
          <mxGeometry x="85" y="0" width="50" height="20" as="geometry"/>
        </mxCell>
        <mxCell id="9" value="street" style="text;html=1;align=left;verticalAlign=top;resizable=0;points=[];autosize=1;" vertex="1" parent="6">
          <mxGeometry x="10" y="30" width="40" height="20" as="geometry"/>
        </mxCell>
        <mxCell id="10" value="city" style="text;html=1;align=left;verticalAlign=top;resizable=0;points=[];autosize=1;" vertex="1" parent="6">
          <mxGeometry x="10" y="50" width="30" height="20" as="geometry"/>
        </mxCell>
        <mxCell id="11" value="postal_code" style="text;html=1;align=left;verticalAlign=top;resizable=0;points=[];autosize=1;" vertex="1" parent="6">
          <mxGeometry x="10" y="70" width="70" height="20" as="geometry"/>
        </mxCell>
        <mxCell id="12" value="country_id" style="text;html=1;align=left;verticalAlign=top;resizable=0;points=[];autosize=1;" vertex="1" parent="6">
          <mxGeometry x="10" y="90" width="70" height="20" as="geometry"/>
        </mxCell>
        <mxCell id="13" value="FK" style="text;html=1;align=left;verticalAlign=top;resizable=0;points=[];autosize=1;" vertex="1" parent="12">
          <mxGeometry x="75" y="0" width="30" height="20" as="geometry"/>
        </mxCell>
        <mxCell id="14" value="address_status" style="rounded=0;whiteSpace=wrap;html=1;" vertex="1" parent="1">
          <mxGeometry x="550" y="100" width="120" height="60" as="geometry"/>
        </mxCell>
        <mxCell id="15" value="status_id" style="text;html=1;align=left;verticalAlign=top;resizable=0;points=[];autosize=1;" vertex="1" parent="14">
          <mxGeometry x="10" y="10" width="60" height="20" as="geometry"/>
        </mxCell>
        <mxCell id="16" value="PK, AI" style="text;html=1;align=left;verticalAlign=top;resizable=0;points=[];autosize=1;" vertex="1" parent="15">
          <mxGeometry x="65" y="0" width="50" height="20" as="geometry"/>
        </mxCell>
        <mxCell id="17" value="status_name" style="text;html=1;align=left;verticalAlign=top;resizable=0;points=[];autosize=1;" vertex="1" parent="14">
          <mxGeometry x="10" y="30" width="80" height="20" as="geometry"/>
        </mxCell>
        <mxCell id="18" value="customer" style="rounded=0;whiteSpace=wrap;html=1;" vertex="1" parent="1">
          <mxGeometry x="100" y="260" width="120" height="100" as="geometry"/>
        </mxCell>
        <mxCell id="19" value="customer_id" style="text;html=1;align=left;verticalAlign=top;resizable=0;points=[];autosize=1;" vertex="1" parent="18">
          <mxGeometry x="10" y="10" width="80" height="20" as="geometry"/>
        </mxCell>
        <mxCell id="20" value="PK, AI" style="text;html=1;align=left;verticalAlign=top;resizable=0;points=[];autosize=1;" vertex="1" parent="19">
          <mxGeometry x="85" y="0" width="50" height="20" as="geometry"/>
        </mxCell>
        <mxCell id="21" value="first_name" style="text;html=1;align=left;verticalAlign=top;resizable=0;points=[];autosize=1;" vertex="1" parent="18">
          <mxGeometry x="10" y="30" width="70" height="20" as="geometry"/>
        </mxCell>
        <mxCell id="22" value="last_name" style="text;html=1;align=left;verticalAlign=top;resizable=0;points=[];autosize=1;" vertex="1" parent="18">
          <mxGeometry x="10" y="50" width="70" height="20" as="geometry"/>
        </mxCell>
        <mxCell id="23" value="email" style="text;html=1;align=left;verticalAlign=top;resizable=0;points=[];autosize=1;" vertex="1" parent="18">
          <mxGeometry x="10" y="70" width="40" height="20" as="geometry"/>
        </mxCell>
        <mxCell id="24" value="UQ" style="text;html=1;align=left;verticalAlign=top;resizable=0;points=[];autosize=1;" vertex="1" parent="23">
          <mxGeometry x="45" y="0" width="30" height="20" as="geometry"/>
        </mxCell>
        <mxCell id="25" value="customer_address" style="rounded=0;whiteSpace=wrap;html=1;" vertex="1" parent="1">
          <mxGeometry x="320" y="260" width="120" height="80" as="geometry"/>
        </mxCell>
        <mxCell id="26" value="customer_id" style="text;html=1;align=left;verticalAlign=top;resizable=0;points=[];autosize=1;" vertex="1" parent="25">
          <mxGeometry x="10" y="10" width="70" height="20" as="geometry"/>
        </mxCell>
        <mxCell id="27" value="FK" style="text;html=1;align=left;verticalAlign=top;resizable=0;points=[];autosize=1;" vertex="1" parent="26">
          <mxGeometry x="75" y="0" width="30" height="20" as="geometry"/>
        </mxCell>
        <mxCell id="28" value="address_id" style="text;html=1;align=left;verticalAlign=top;resizable=0;points=[];autosize=1;" vertex="1" parent="25">
          <mxGeometry x="10" y="30" width="70" height="20" as="geometry"/>
        </mxCell>
        <mxCell id="29" value="FK" style="text;html=1;align=left;verticalAlign=top;resizable=0;points=[];autosize=1;" vertex="1" parent="28">
          <mxGeometry x="75" y="0" width="30" height="20" as="geometry"/>
        </mxCell>
        <mxCell id="30" value="status_id" style="text;html=1;align=left;verticalAlign=top;resizable=0;points=[];autosize=1;" vertex="1" parent="25">
          <mxGeometry x="10" y="50" width="60" height="20" as="geometry"/>
        </mxCell>
        <mxCell id="31" value="FK" style="text;html=1;align=left;verticalAlign=top;resizable=0;points=[];autosize=1;" vertex="1" parent="30">
          <mxGeometry x="65" y="0" width="30" height="20" as="geometry"/>
        </mxCell>
        <mxCell id="32" value="PK" style="text;html=1;align=left;verticalAlign=top;resizable=0;points=[];autosize=1;" vertex="1" parent="25">
          <mxGeometry x="85" y="10" width="30" height="20" as="geometry"/>
        </mxCell>
        <mxCell id="33" value="PK" style="text;html=1;align=left;verticalAlign=top;resizable=0;points=[];autosize=1;" vertex="1" parent="25">
          <mxGeometry x="85" y="30" width="30" height="20" as="geometry"/>
        </mxCell>
        <mxCell id="34" value="author" style="rounded=0;whiteSpace=wrap;html=1;" vertex="1" parent="1">
          <mxGeometry x="100" y="420" width="120" height="60" as="geometry"/>
        </mxCell>
        <mxCell id="35" value="author_id" style="text;html=1;align=left;verticalAlign=top;resizable=0;points=[];autosize=1;" vertex="1" parent="34">
          <mxGeometry x="10" y="10" width="70" height="20" as="geometry"/>
        </mxCell>
        <mxCell id="36" value="PK, AI" style="text;html=1;align=left;verticalAlign=top;resizable=0;points=[];autosize=1;" vertex="1" parent="35">
          <mxGeometry x="75" y="0" width="50" height="20" as="geometry"/>
        </mxCell>
        <mxCell id="37" value="name" style="text;html=1;align=left;verticalAlign=top;resizable=0;points=[];autosize=1;" vertex="1" parent="34">
          <mxGeometry x="10" y="30" width="40" height="20" as="geometry"/>
        </mxCell>
        <mxCell id="38" value="book_language" style="rounded=0;whiteSpace=wrap;html=1;" vertex="1" parent="1">
          <mxGeometry x="320" y="420" width="120" height="60" as="geometry"/>
        </mxCell>
        <mxCell id="39" value="language_id" style="text;html=1;align=left;verticalAlign=top;resizable=0;points=[];autosize=1;" vertex="1" parent="38">
          <mxGeometry x="10" y="10" width="80" height="20" as="geometry"/>
        </mxCell>
        <mxCell id="40" value="PK, AI" style="text;html=1;align=left;verticalAlign=top;resizable=0;points=[];autosize=1;" vertex="1" parent="39">
          <mxGeometry x="85" y="0" width="50" height="20" as="geometry"/>
        </mxCell>
        <mxCell id="41" value="language_name" style="text;html=1;align=left;verticalAlign=top;resizable=0;points=[];autosize=1;" vertex="1" parent="38">
          <mxGeometry x="10" y="30" width="90" height="20" as="geometry"/>
        </mxCell>
        <mxCell id="42" value="publisher" style="rounded=0;whiteSpace=wrap;html=1;" vertex="1" parent="1">
          <mxGeometry x="550" y="420" width="120" height="60" as="geometry"/>
        </mxCell>
        <mxCell id="43" value="publisher_id" style="text;html=1;align=left;verticalAlign=top;resizable=0;points=[];autosize=1;" vertex="1" parent="42">
          <mxGeometry x="10" y="10" width="80" height="20" as="geometry"/>
        </mxCell>
        <mxCell id="44" value="PK, AI" style="text;html=1;align=left;verticalAlign=top;resizable=0;points=[];autosize=1;" vertex="1" parent="43">
          <mxGeometry x="85" y="0" width="50" height="20" as="geometry"/>
        </mxCell>
        <mxCell id="45" value="name" style="text;html=1;align=left;verticalAlign=top;resizable=0;points=[];autosize=1;" vertex="1" parent="42">
          <mxGeometry x="10" y="30" width="40" height="20" as="geometry"/>
        </mxCell>
        <mxCell id="46" value="book" style="rounded=0;whiteSpace=wrap;html=1;" vertex="1" parent="1">
          <mxGeometry x="320" y="580" width="120" height="120" as="geometry"/>
        </mxCell>
        <mxCell id="47" value="book_id" style="text;html=1;align=left;verticalAlign=top;resizable=0;points=[];autosize=1;" vertex="1" parent="46">
          <mxGeometry x="10" y="10" width="60" height="20" as="geometry"/>
        </mxCell>
        <mxCell id="48" value="PK, AI" style="text;html=1;align=left;vertical
    </mxGraphModel>
  </diagram>
</mxfile>
